<?xml version="1.0" encoding="UTF-8"?>
<svg width="202.86mm" height="202.86mm" version="1.1" viewBox="0 0 202.86 202.86" xmlns="http://www.w3.org/2000/svg">
 <defs>
  <marker id="marker6413" overflow="visible" orient="auto">
   <path transform="matrix(.2 0 0 .2 1.48 .2)" d="m-2.5-1c0 2.76-2.24 5-5 5s-5-2.24-5-5 2.24-5 5-5 5 2.24 5 5z" fill="#fff" fill-rule="evenodd" stroke="#fff" stroke-width="1pt"/>
  </marker>
  <marker id="marker6301" overflow="visible" orient="auto">
   <path transform="matrix(.2 0 0 .2 1.48 .2)" d="m-2.5-1c0 2.76-2.24 5-5 5s-5-2.24-5-5 2.24-5 5-5 5 2.24 5 5z" fill="#fff" fill-rule="evenodd" stroke="#fff" stroke-width="1pt"/>
  </marker>
  <marker id="marker6195" overflow="visible" orient="auto">
   <path transform="matrix(.2 0 0 .2 1.48 .2)" d="m-2.5-1c0 2.76-2.24 5-5 5s-5-2.24-5-5 2.24-5 5-5 5 2.24 5 5z" fill="#fff" fill-rule="evenodd" stroke="#fff" stroke-width="1pt"/>
  </marker>
  <marker id="marker6095" overflow="visible" orient="auto">
   <path transform="matrix(.2 0 0 .2 1.48 .2)" d="m-2.5-1c0 2.76-2.24 5-5 5s-5-2.24-5-5 2.24-5 5-5 5 2.24 5 5z" fill="#fff" fill-rule="evenodd" stroke="#fff" stroke-width="1pt"/>
  </marker>
  <marker id="marker6001" overflow="visible" orient="auto">
   <path transform="matrix(.2 0 0 .2 1.48 .2)" d="m-2.5-1c0 2.76-2.24 5-5 5s-5-2.24-5-5 2.24-5 5-5 5 2.24 5 5z" fill="#fff" fill-rule="evenodd" stroke="#fff" stroke-width="1pt"/>
  </marker>
  <marker id="marker5913" overflow="visible" orient="auto">
   <path transform="matrix(.2 0 0 .2 1.48 .2)" d="m-2.5-1c0 2.76-2.24 5-5 5s-5-2.24-5-5 2.24-5 5-5 5 2.24 5 5z" fill="#fff" fill-rule="evenodd" stroke="#fff" stroke-width="1pt"/>
  </marker>
  <marker id="marker5581" overflow="visible" orient="auto">
   <path transform="matrix(.2 0 0 .2 1.48 .2)" d="m-2.5-1c0 2.76-2.24 5-5 5s-5-2.24-5-5 2.24-5 5-5 5 2.24 5 5z" fill="#fff" fill-rule="evenodd" stroke="#fff" stroke-width="1pt"/>
  </marker>
  <marker id="marker5217" overflow="visible" orient="auto">
   <path transform="matrix(.2 0 0 .2 1.48 .2)" d="m-2.5-1c0 2.76-2.24 5-5 5s-5-2.24-5-5 2.24-5 5-5 5 2.24 5 5z" fill="#fff" fill-rule="evenodd" stroke="#fff" stroke-width="1pt"/>
  </marker>
  <marker id="marker5025" overflow="visible" orient="auto">
   <path transform="matrix(.2 0 0 .2 1.48 .2)" d="m-2.5-1c0 2.76-2.24 5-5 5s-5-2.24-5-5 2.24-5 5-5 5 2.24 5 5z" fill="#fff" fill-rule="evenodd" stroke="#fff" stroke-width="1pt"/>
  </marker>
 </defs>
 <g transform="translate(-3.4745 -7.8144)">
  <path d="m3.4745 7.8144h202.86v202.86h-202.86z" fill-opacity="0" stroke-width=".26458"/>
  <path d="m23.475 7.8144h162.86c11.08 0 20 8.92 20 20v162.86c0 11.08-8.92 20-20 20h-162.86c-11.08 0-20-8.92-20-20v-162.86c0-11.08 8.92-20 20-20z" fill="#ed6e00" style="paint-order:stroke fill markers"/>
  <g transform="translate(0,-1.5875)" stroke="#fff">
   <g fill="#ed6e00" stroke-width="7">
    <path d="m49.742 23.95h68.58v98.943h-68.58z" style="paint-order:stroke fill markers"/>
    <path d="m33.867 34.533h68.58v98.943h-68.58z" style="paint-order:stroke fill markers"/>
    <path d="m17.992 45.117h68.58v98.943h-68.58z" style="paint-order:stroke fill markers"/>
   </g>
   <g transform="translate(-.52917)" fill="none" stroke-width="5">
    <path d="m27.837 58.875h46.592"/>
    <path d="m27.837 74.75h18.429"/>
    <path d="m27.837 106.5h14.497"/>
    <path d="m27.837 90.625h21.511"/>
    <path d="m27.837 122.38h21.511"/>
   </g>
  </g>
  <g fill="none" stroke="#fff" stroke-width="3">
   <path d="m141.82 70.517h21.167l27.781-27.781" marker-end="url(#marker5025)" stroke-miterlimit="0"/>
   <g>
    <path d="m148.7 54.112h13.229l17.198-17.198" marker-end="url(#marker5217)"/>
    <path d="m137.58 82.423h48.948" marker-end="url(#marker5913)"/>
    <path d="m150.81 95.652h21.167" marker-end="url(#marker6001)"/>
    <path d="m143.4 108.88h42.333l6.6146 6.6146" marker-end="url(#marker6095)"/>
    <path d="m150.81 120.79h27.781" marker-end="url(#marker6195)"/>
    <path d="m150.81 131.37h19.844l18.521 18.521" marker-end="url(#marker6301)"/>
    <path d="m146.84 155.18 35.719 35.719" marker-end="url(#marker5581)"/>
    <path d="m150.81 145.92h9.2604l7.9375 7.9375" marker-end="url(#marker6413)"/>
   </g>
  </g>
  <path d="m54.845 52.276c25.04-8.5457 75.121-8.6334 100.16 0v88.157c0 21.942-50.081 54.971-50.081 54.971s-50.081-33.03-50.081-55.049z" fill="#ed6e00" stroke="#fff" stroke-width="7.1754"/>
  <g transform="translate(101.43 94.164) scale(.85) translate(-101.43 -67.702)" fill="#fff">
   <g id="textAn" transform="translate(-18.197)" aria-label="An">
    <path d="m106.8 95h-5.4248q-0.93994 0-1.5039-0.42969-0.56396-0.45654-0.83252-1.1279l-2.2559-7.0093h-13.132l-2.229 6.9824q-0.21484 0.59082-0.83252 1.1011-0.59082 0.4834-1.477 0.4834h-5.5054l12.998-35.664h7.1973zm-21.565-13.508h9.9365l-3.6255-11.279q-0.32227-0.83252-0.67139-1.9336-0.34912-1.1279-0.69824-2.4438-0.32227 1.3159-0.67139 2.4438-0.34912 1.1279-0.64453 1.9604z"/>
    <path d="m110.16 95v-26.667h4.1894q0.64453 0 1.0742 0.29541 0.45654 0.29541 0.59082 0.91309l0.45654 1.9604q0.80567-0.80566 1.665-1.4502 0.85938-0.67139 1.853-1.1279 0.99365-0.4834 2.0947-0.75195 1.1279-0.26856 2.4707-0.26856 2.1753 0 3.8403 0.75195t2.793 2.0947q1.1279 1.3428 1.6919 3.2227 0.59082 1.853 0.59082 4.0552v16.973h-6.8213v-16.973q0-2.2827-1.0474-3.5449-1.0474-1.2622-3.1421-1.2622-1.5576 0-2.9272 0.67139-1.3428 0.67139-2.5513 1.8799v19.229z"/>
   </g>
   <g id="textSi" transform="translate(32.257 -50.376)" aria-label="Si">
    <path d="m107.22 116.05q-0.26856 0.53711-0.64454 0.77881-0.34912 0.21485-0.88623 0.21485-0.51025 0-1.1011-0.37598t-1.3965-0.80566q-0.77881-0.45655-1.8262-0.83252-1.0474-0.37598-2.417-0.37598-2.417 0-3.6523 1.1816-1.2085 1.1816-1.2085 3.0884 0 1.2085 0.64453 2.0142 0.67139 0.77881 1.7456 1.3696 1.1011 0.56396 2.4707 1.0205 1.3965 0.45654 2.8467 0.99365 1.4502 0.51025 2.8198 1.2354 1.3965 0.69824 2.4707 1.7725 1.1011 1.0742 1.7456 2.6318 0.67139 1.5576 0.67139 3.7866 0 2.417-0.80566 4.5386-0.77881 2.1216-2.3096 3.7061-1.5308 1.5576-3.7598 2.4707-2.2022 0.91309-5.0488 0.91309-1.6113 0-3.2227-0.34912-1.5845-0.32227-3.0615-0.93995-1.4771-0.61767-2.793-1.477-1.3159-0.85937-2.3096-1.9336l2.0947-3.3569q0.2417-0.40284 0.64453-0.64454 0.42969-0.24169 0.91309-0.24169 0.64453 0 1.3159 0.51025 0.69824 0.4834 1.6113 1.1011 0.91309 0.59082 2.1216 1.1011 1.2085 0.4834 2.8735 0.4834 2.417 0 3.7598-1.2354 1.3428-1.2354 1.3428-3.6523 0-1.3696-0.67139-2.229-0.64453-0.85938-1.7188-1.4233-1.0742-0.59082-2.4707-0.99366-1.3696-0.42968-2.8198-0.91308-1.4233-0.4834-2.8198-1.1548-1.3696-0.69824-2.4438-1.8262t-1.7456-2.793q-0.64453-1.665-0.64453-4.1357 0-1.9604 0.75195-3.8135 0.75195-1.8799 2.2021-3.3301 1.4502-1.4502 3.5449-2.3096 2.1216-0.88623 4.834-0.88623 3.0615 0 5.6665 0.99365 2.6318 0.99365 4.4849 2.793z"/>
    <path d="m113.59 145m7.7612-26.667v26.667h-6.8213v-26.667zm0.83252-7.6538q0 0.88623-0.34912 1.665-0.34912 0.75195-0.93994 1.3428-0.59082 0.56397-1.3965 0.91309-0.80566 0.32227-1.6919 0.32227-0.85937 0-1.6382-0.32227-0.75196-0.34912-1.3428-0.91309-0.56396-0.59082-0.91308-1.3428-0.32227-0.77881-0.32227-1.665t0.32227-1.665q0.34912-0.77881 0.91308-1.3428 0.59082-0.59082 1.3428-0.91309 0.77881-0.34912 1.6382-0.34912 0.88623 0 1.6919 0.34912 0.80567 0.32227 1.3965 0.91309 0.59082 0.56396 0.93994 1.3428t0.34912 1.665z"/>
   </g>
  </g>
 </g>
</svg>
